<svg xmlns="http://www.w3.org/2000/svg" xmlns:xlink="http://www.w3.org/1999/xlink" width="6571" zoomAndPan="magnify" viewBox="0 0 4928.25 1481.249995" height="1975" preserveAspectRatio="xMidYMid meet" version="1.0"><defs><g/><clipPath id="067fe6be12"><path d="M 0.871094 0 L 4926.628906 0 L 4926.628906 1480.5 L 0.871094 1480.5 Z M 0.871094 0 " clip-rule="nonzero"/></clipPath><clipPath id="be4f3ee3e8"><path d="M 14 680 L 704 680 L 704 863 L 14 863 Z M 14 680 " clip-rule="nonzero"/></clipPath><clipPath id="2f93e6f792"><path d="M 229.527344 431.050781 L 716.804688 703.902344 L 488.269531 1112.039062 L 0.992188 839.1875 Z M 229.527344 431.050781 " clip-rule="nonzero"/></clipPath><clipPath id="9b0912a3c2"><path d="M 229.527344 431.050781 L 716.804688 703.902344 L 488.269531 1112.039062 L 0.992188 839.1875 Z M 229.527344 431.050781 " clip-rule="nonzero"/></clipPath><clipPath id="2a6a1c5fe0"><path d="M 939 315 L 4926.628906 315 L 4926.628906 1165 L 939 1165 Z M 939 315 " clip-rule="nonzero"/></clipPath><clipPath id="735b3fdaf0"><rect x="0" width="3988" y="0" height="850"/></clipPath></defs><g clip-path="url(#067fe6be12)"></g><g clip-path="url(#be4f3ee3e8)"><g clip-path="url(#2f93e6f792)"><g clip-path="url(#9b0912a3c2)"><path fill="#eb1600" d="M 684.082031 685.578125 C 665.972656 675.4375 642.851562 681.960938 632.710938 700.070312 C 627.699219 709.019531 626.753906 719.199219 629.269531 728.425781 L 480.695312 800.144531 C 477.71875 796.34375 474.097656 792.9375 469.640625 790.4375 C 453.792969 781.566406 434.039062 785.449219 422.574219 798.691406 L 302.785156 731.613281 C 308.082031 714.917969 301.070312 696.046875 285.222656 687.175781 C 267.113281 677.035156 243.992188 683.558594 233.851562 701.667969 C 228.839844 710.617188 227.898438 720.792969 230.410156 730.019531 L 81.839844 801.742188 C 78.863281 797.941406 75.242188 794.53125 70.78125 792.035156 C 52.671875 781.894531 29.550781 788.417969 19.410156 806.527344 C 9.269531 824.636719 15.792969 847.757812 33.902344 857.898438 C 52.011719 868.039062 75.132812 861.515625 85.273438 843.40625 C 90.289062 834.453125 91.234375 824.28125 88.714844 815.054688 L 236.964844 743.421875 C 239.964844 747.300781 243.816406 750.503906 248.34375 753.039062 C 264.257812 761.949219 283.964844 758.167969 295.410156 744.789062 L 415.199219 811.863281 C 409.769531 828.613281 416.84375 847.390625 432.761719 856.300781 C 450.871094 866.441406 473.992188 859.917969 484.132812 841.8125 C 489.144531 832.859375 490.089844 822.683594 487.570312 813.457031 L 635.824219 741.828125 C 638.824219 745.703125 642.671875 748.90625 647.199219 751.441406 C 665.308594 761.582031 688.433594 755.058594 698.570312 736.949219 C 708.710938 718.839844 702.191406 695.71875 684.082031 685.578125 Z M 676.703125 698.753906 C 687.695312 704.90625 691.554688 718.582031 685.398438 729.574219 C 679.246094 740.566406 665.566406 744.425781 654.578125 738.269531 C 643.585938 732.117188 639.726562 718.4375 645.882812 707.445312 C 652.035156 696.457031 665.714844 692.597656 676.703125 698.753906 Z M 277.847656 700.347656 C 288.839844 706.503906 292.695312 720.179688 286.542969 731.171875 C 280.390625 742.160156 266.710938 746.019531 255.71875 739.867188 C 244.730469 733.710938 240.871094 720.03125 247.023438 709.042969 C 253.179688 698.050781 266.855469 694.195312 277.847656 700.347656 Z M 462.265625 803.613281 C 473.253906 809.765625 477.113281 823.445312 470.957031 834.433594 C 464.804688 845.425781 451.125 849.285156 440.136719 843.128906 C 429.144531 836.976562 425.289062 823.296875 431.441406 812.308594 C 437.597656 801.316406 451.273438 797.457031 462.265625 803.613281 Z M 63.40625 805.207031 C 74.398438 811.363281 78.257812 825.039062 72.101562 836.03125 C 65.949219 847.019531 52.269531 850.878906 41.277344 844.726562 C 30.289062 838.570312 26.429688 824.894531 32.585938 813.902344 C 38.738281 802.914062 52.417969 799.054688 63.40625 805.207031 Z M 63.40625 805.207031 " fill-opacity="1" fill-rule="nonzero"/></g></g></g><g clip-path="url(#2a6a1c5fe0)"><g transform="matrix(1, 0, 0, 1, 939, 315)"><g clip-path="url(#735b3fdaf0)"><g fill="#000000" fill-opacity="1"><g transform="translate(0.469249, 646.658592)"><g><path d="M 21.453125 0 L 21.453125 -66.9375 L 185.875 -253.46875 L 23.390625 -253.46875 L 23.390625 -322.359375 L 280.765625 -322.359375 L 280.765625 -255.40625 L 113.734375 -68.890625 L 284.015625 -68.890625 L 284.015625 0 Z M 21.453125 0 "/></g></g></g><g fill="#000000" fill-opacity="1"><g transform="translate(311.76866, 646.658592)"><g><path d="M 163.125 7.796875 C 122.832031 7.796875 91.742188 -4.765625 69.859375 -29.890625 C 47.984375 -55.023438 37.046875 -91.851562 37.046875 -140.375 L 37.046875 -322.359375 L 119.578125 -322.359375 L 119.578125 -148.171875 C 119.578125 -120.441406 125.207031 -99.210938 136.46875 -84.484375 C 147.738281 -69.753906 165.503906 -62.390625 189.765625 -62.390625 C 212.734375 -62.390625 231.691406 -70.617188 246.640625 -87.078125 C 261.585938 -103.546875 269.0625 -126.515625 269.0625 -155.984375 L 269.0625 -322.359375 L 352.25 -322.359375 L 352.25 0 L 278.8125 0 L 272.3125 -54.59375 C 262.34375 -35.53125 247.9375 -20.363281 229.09375 -9.09375 C 210.25 2.164062 188.257812 7.796875 163.125 7.796875 Z M 163.125 7.796875 "/></g></g></g><g fill="#000000" fill-opacity="1"><g transform="translate(706.904443, 646.658592)"><g><path d="M 42.25 0 L 42.25 -322.359375 L 115.6875 -322.359375 L 122.1875 -267.765625 C 132.144531 -286.828125 146.546875 -301.988281 165.390625 -313.25 C 184.242188 -324.519531 206.453125 -330.15625 232.015625 -330.15625 C 271.878906 -330.15625 302.859375 -317.585938 324.953125 -292.453125 C 347.046875 -267.328125 358.09375 -230.5 358.09375 -181.96875 L 358.09375 0 L 274.90625 0 L 274.90625 -174.171875 C 274.90625 -201.898438 269.269531 -223.128906 258 -237.859375 C 246.738281 -252.597656 229.195312 -259.96875 205.375 -259.96875 C 181.976562 -259.96875 162.804688 -251.734375 147.859375 -235.265625 C 132.910156 -218.796875 125.4375 -195.832031 125.4375 -166.375 L 125.4375 0 Z M 42.25 0 "/></g></g></g><g fill="#000000" fill-opacity="1"><g transform="translate(1102.040181, 646.658592)"><g><path d="M 42.25 0 L 42.25 -467.9375 L 125.4375 -467.9375 L 125.4375 -191.71875 L 239.8125 -322.359375 L 338.59375 -322.359375 L 206.671875 -175.46875 L 360.046875 0 L 256.0625 0 L 125.4375 -161.828125 L 125.4375 0 Z M 42.25 0 "/></g></g></g><g fill="#000000" fill-opacity="1"><g transform="translate(1471.180195, 646.658592)"><g><path d="M 87.09375 -372.390625 C 71.925781 -372.390625 59.46875 -376.9375 49.71875 -386.03125 C 39.96875 -395.132812 35.09375 -406.617188 35.09375 -420.484375 C 35.09375 -434.347656 39.96875 -445.722656 49.71875 -454.609375 C 59.46875 -463.492188 71.925781 -467.9375 87.09375 -467.9375 C 102.25 -467.9375 114.703125 -463.492188 124.453125 -454.609375 C 134.203125 -445.722656 139.078125 -434.347656 139.078125 -420.484375 C 139.078125 -406.617188 134.203125 -395.132812 124.453125 -386.03125 C 114.703125 -376.9375 102.25 -372.390625 87.09375 -372.390625 Z M 45.5 0 L 45.5 -322.359375 L 128.6875 -322.359375 L 128.6875 0 Z M 45.5 0 "/></g></g></g><g fill="#000000" fill-opacity="1"><g transform="translate(1644.701963, 646.658592)"><g><path d="M 42.25 0 L 42.25 -322.359375 L 116.328125 -322.359375 L 124.125 -261.90625 C 135.820312 -282.707031 151.742188 -299.28125 171.890625 -311.625 C 192.046875 -323.976562 215.769531 -330.15625 243.0625 -330.15625 L 243.0625 -242.421875 L 219.671875 -242.421875 C 201.472656 -242.421875 185.222656 -239.601562 170.921875 -233.96875 C 156.628906 -228.332031 145.472656 -218.582031 137.453125 -204.71875 C 129.441406 -190.851562 125.4375 -171.570312 125.4375 -146.875 L 125.4375 0 Z M 42.25 0 "/></g></g></g><g fill="#000000" fill-opacity="1"><g transform="translate(1902.060058, 646.658592)"><g><path d="M 198.875 7.796875 C 166.375 7.796875 137.554688 0.863281 112.421875 -13 C 87.296875 -26.863281 67.582031 -46.359375 53.28125 -71.484375 C 38.988281 -96.617188 31.84375 -125.648438 31.84375 -158.578125 C 31.84375 -191.941406 38.882812 -221.617188 52.96875 -247.609375 C 67.050781 -273.609375 86.546875 -293.863281 111.453125 -308.375 C 136.367188 -322.894531 165.722656 -330.15625 199.515625 -330.15625 C 231.148438 -330.15625 259.097656 -323.222656 283.359375 -309.359375 C 307.617188 -295.492188 326.570312 -276.535156 340.21875 -252.484375 C 353.875 -228.441406 360.703125 -201.6875 360.703125 -172.21875 C 360.703125 -167.457031 360.59375 -162.476562 360.375 -157.28125 C 360.15625 -152.082031 359.828125 -146.664062 359.390625 -141.03125 L 114.390625 -141.03125 C 116.117188 -115.894531 124.890625 -96.175781 140.703125 -81.875 C 156.515625 -67.582031 175.6875 -60.4375 198.21875 -60.4375 C 215.113281 -60.4375 229.300781 -64.226562 240.78125 -71.8125 C 252.269531 -79.394531 260.832031 -89.253906 266.46875 -101.390625 L 350.953125 -101.390625 C 344.878906 -81.023438 334.800781 -62.5 320.71875 -45.8125 C 306.644531 -29.132812 289.316406 -16.03125 268.734375 -6.5 C 248.148438 3.03125 224.863281 7.796875 198.875 7.796875 Z M 199.515625 -262.5625 C 179.148438 -262.5625 161.171875 -256.816406 145.578125 -245.328125 C 129.984375 -233.847656 120.019531 -216.410156 115.6875 -193.015625 L 276.203125 -193.015625 C 274.910156 -214.253906 267.113281 -231.15625 252.8125 -243.71875 C 238.507812 -256.28125 220.742188 -262.5625 199.515625 -262.5625 Z M 199.515625 -262.5625 "/></g></g></g><g fill="#000000" fill-opacity="1"><g transform="translate(2290.696965, 646.658592)"><g><path d="M 198.875 7.796875 C 166.375 7.796875 137.554688 0.863281 112.421875 -13 C 87.296875 -26.863281 67.582031 -46.359375 53.28125 -71.484375 C 38.988281 -96.617188 31.84375 -125.648438 31.84375 -158.578125 C 31.84375 -191.941406 38.882812 -221.617188 52.96875 -247.609375 C 67.050781 -273.609375 86.546875 -293.863281 111.453125 -308.375 C 136.367188 -322.894531 165.722656 -330.15625 199.515625 -330.15625 C 231.148438 -330.15625 259.097656 -323.222656 283.359375 -309.359375 C 307.617188 -295.492188 326.570312 -276.535156 340.21875 -252.484375 C 353.875 -228.441406 360.703125 -201.6875 360.703125 -172.21875 C 360.703125 -167.457031 360.59375 -162.476562 360.375 -157.28125 C 360.15625 -152.082031 359.828125 -146.664062 359.390625 -141.03125 L 114.390625 -141.03125 C 116.117188 -115.894531 124.890625 -96.175781 140.703125 -81.875 C 156.515625 -67.582031 175.6875 -60.4375 198.21875 -60.4375 C 215.113281 -60.4375 229.300781 -64.226562 240.78125 -71.8125 C 252.269531 -79.394531 260.832031 -89.253906 266.46875 -101.390625 L 350.953125 -101.390625 C 344.878906 -81.023438 334.800781 -62.5 320.71875 -45.8125 C 306.644531 -29.132812 289.316406 -16.03125 268.734375 -6.5 C 248.148438 3.03125 224.863281 7.796875 198.875 7.796875 Z M 199.515625 -262.5625 C 179.148438 -262.5625 161.171875 -256.816406 145.578125 -245.328125 C 129.984375 -233.847656 120.019531 -216.410156 115.6875 -193.015625 L 276.203125 -193.015625 C 274.910156 -214.253906 267.113281 -231.15625 252.8125 -243.71875 C 238.507812 -256.28125 220.742188 -262.5625 199.515625 -262.5625 Z M 199.515625 -262.5625 "/></g></g></g><g fill="#000000" fill-opacity="1"><g transform="translate(2679.333693, 646.658592)"><g><path d="M 42.25 0 L 42.25 -467.9375 L 125.4375 -467.9375 L 125.4375 0 Z M 42.25 0 "/></g></g></g><g fill="#000000" fill-opacity="1"><g transform="translate(2847.65638, 646.658592)"><g><path d="M 153.375 7.796875 C 125.644531 7.796875 102.894531 3.359375 85.125 -5.515625 C 67.363281 -14.398438 54.148438 -26.207031 45.484375 -40.9375 C 36.828125 -55.675781 32.5 -71.925781 32.5 -89.6875 C 32.5 -119.582031 44.195312 -143.84375 67.59375 -162.46875 C 90.988281 -181.101562 126.082031 -190.421875 172.875 -190.421875 L 254.765625 -190.421875 L 254.765625 -198.21875 C 254.765625 -220.3125 248.476562 -236.554688 235.90625 -246.953125 C 223.34375 -257.359375 207.75 -262.5625 189.125 -262.5625 C 172.226562 -262.5625 157.492188 -258.550781 144.921875 -250.53125 C 132.359375 -242.519531 124.5625 -230.71875 121.53125 -215.125 L 40.296875 -215.125 C 42.460938 -238.519531 50.367188 -258.878906 64.015625 -276.203125 C 77.660156 -293.535156 95.316406 -306.859375 116.984375 -316.171875 C 138.648438 -325.492188 162.910156 -330.15625 189.765625 -330.15625 C 235.691406 -330.15625 271.867188 -318.671875 298.296875 -295.703125 C 324.734375 -272.742188 337.953125 -240.25 337.953125 -198.21875 L 337.953125 0 L 267.109375 0 L 259.3125 -52 C 249.78125 -34.664062 236.457031 -20.363281 219.34375 -9.09375 C 202.226562 2.164062 180.238281 7.796875 153.375 7.796875 Z M 172.21875 -57.1875 C 196.050781 -57.1875 214.570312 -64.984375 227.78125 -80.578125 C 241 -96.179688 249.34375 -115.46875 252.8125 -138.4375 L 181.96875 -138.4375 C 159.875 -138.4375 144.0625 -134.425781 134.53125 -126.40625 C 125 -118.394531 120.234375 -108.539062 120.234375 -96.84375 C 120.234375 -84.269531 125 -74.515625 134.53125 -67.578125 C 144.0625 -60.648438 156.625 -57.1875 172.21875 -57.1875 Z M 172.21875 -57.1875 "/></g></g></g><g fill="#000000" fill-opacity="1"><g transform="translate(3222.645507, 646.658592)"><g><path d="M 233.3125 7.796875 C 209.050781 7.796875 187.820312 3.25 169.625 -5.84375 C 151.425781 -14.945312 136.695312 -27.726562 125.4375 -44.1875 L 116.328125 0 L 42.25 0 L 42.25 -467.9375 L 125.4375 -467.9375 L 125.4375 -276.203125 C 135.832031 -290.503906 149.585938 -303.070312 166.703125 -313.90625 C 183.816406 -324.738281 206.019531 -330.15625 233.3125 -330.15625 C 263.644531 -330.15625 290.722656 -322.785156 314.546875 -308.046875 C 338.378906 -293.316406 357.226562 -273.171875 371.09375 -247.609375 C 384.957031 -222.046875 391.890625 -193.019531 391.890625 -160.53125 C 391.890625 -128.03125 384.957031 -99.109375 371.09375 -73.765625 C 357.226562 -48.421875 338.378906 -28.488281 314.546875 -13.96875 C 290.722656 0.539062 263.644531 7.796875 233.3125 7.796875 Z M 215.765625 -64.984375 C 242.191406 -64.984375 264.070312 -73.863281 281.40625 -91.625 C 298.738281 -109.394531 307.40625 -132.363281 307.40625 -160.53125 C 307.40625 -188.6875 298.738281 -211.863281 281.40625 -230.0625 C 264.070312 -248.257812 242.191406 -257.359375 215.765625 -257.359375 C 188.898438 -257.359375 166.910156 -248.367188 149.796875 -230.390625 C 132.679688 -212.410156 124.125 -189.335938 124.125 -161.171875 C 124.125 -133.015625 132.679688 -109.941406 149.796875 -91.953125 C 166.910156 -73.972656 188.898438 -64.984375 215.765625 -64.984375 Z M 215.765625 -64.984375 "/></g></g></g><g fill="#000000" fill-opacity="1"><g transform="translate(3646.376374, 646.658592)"><g><path d="M 175.46875 7.796875 C 146.875 7.796875 121.742188 3.140625 100.078125 -6.171875 C 78.421875 -15.484375 61.09375 -28.375 48.09375 -44.84375 C 35.09375 -61.3125 27.296875 -80.375 24.703125 -102.03125 L 108.53125 -102.03125 C 111.132812 -89.46875 118.175781 -78.742188 129.65625 -69.859375 C 141.132812 -60.984375 155.972656 -56.546875 174.171875 -56.546875 C 192.367188 -56.546875 205.691406 -60.226562 214.140625 -67.59375 C 222.585938 -74.957031 226.8125 -83.40625 226.8125 -92.9375 C 226.8125 -106.800781 220.742188 -116.222656 208.609375 -121.203125 C 196.484375 -126.191406 179.585938 -131.066406 157.921875 -135.828125 C 144.054688 -138.859375 129.972656 -142.539062 115.671875 -146.875 C 101.378906 -151.207031 88.273438 -156.734375 76.359375 -163.453125 C 64.441406 -170.171875 54.800781 -178.835938 47.4375 -189.453125 C 40.070312 -200.066406 36.390625 -213.171875 36.390625 -228.765625 C 36.390625 -257.359375 47.765625 -281.40625 70.515625 -300.90625 C 93.265625 -320.40625 125.21875 -330.15625 166.375 -330.15625 C 204.5 -330.15625 234.9375 -321.269531 257.6875 -303.5 C 280.4375 -285.738281 293.976562 -261.257812 298.3125 -230.0625 L 219.671875 -230.0625 C 214.898438 -253.894531 196.914062 -265.8125 165.71875 -265.8125 C 150.125 -265.8125 138.101562 -262.773438 129.65625 -256.703125 C 121.207031 -250.640625 116.984375 -243.0625 116.984375 -233.96875 C 116.984375 -224.4375 123.265625 -216.851562 135.828125 -211.21875 C 148.390625 -205.582031 165.070312 -200.382812 185.875 -195.625 C 208.40625 -190.425781 229.09375 -184.679688 247.9375 -178.390625 C 266.78125 -172.109375 281.832031 -162.796875 293.09375 -150.453125 C 304.363281 -138.109375 310 -120.453125 310 -97.484375 C 310.4375 -77.554688 305.238281 -59.578125 294.40625 -43.546875 C 283.570312 -27.515625 267.972656 -14.945312 247.609375 -5.84375 C 227.242188 3.25 203.195312 7.796875 175.46875 7.796875 Z M 175.46875 7.796875 "/></g></g></g></g></g></g></svg>